<?xml version="1.0" encoding="utf-8"?>
<!-- Generator: Adobe Illustrator 24.1.1, SVG Export Plug-In . SVG Version: 6.00 Build 0)  -->
<svg version="1.1" id="Camada_1" xmlns="http://www.w3.org/2000/svg" xmlns:xlink="http://www.w3.org/1999/xlink" x="0px" y="0px"
	 viewBox="0 0 123.938 58.451" style="enable-background:new 0 0 123.938 58.451;" xml:space="preserve">
<g style="display:none;">
	<rect x="-22.224" y="-20.896" style="display:inline;fill:#FFFFFF;" width="168.385" height="100.232"/>
</g>
<g>
	<path style="fill:#FFB600;" d="M46.45,40.415c-0.016-0.833-0.439-1.567-1.079-2.009c-0.403-0.278-0.891-0.442-1.418-0.442
		c-0.527,0-1.015,0.164-1.418,0.442c-0.566,0.391-0.961,1.01-1.057,1.724c-0.014,0.103-0.023,0.206-0.024,0.312
		c-0.72,7.31-6.891,13.028-14.373,13.028c-0.005,0-0.01,0-0.015,0V53.47c-7.463-0.022-13.611-5.732-14.33-13.027
		c-0.001-0.106-0.01-0.21-0.024-0.312c-0.096-0.714-0.491-1.333-1.057-1.724c-0.403-0.278-0.891-0.442-1.418-0.442
		c-0.527,0-1.015,0.164-1.418,0.442c-0.641,0.442-1.063,1.175-1.079,2.009c0,0.016-0.002,0.032-0.002,0.049
		c0,0.144,0.015,0.285,0.038,0.423c0.938,9.823,9.221,17.534,19.279,17.562v0.001c0.009,0,0.018,0,0.026,0
		c10.083,0,18.394-7.723,19.334-17.564c0.023-0.138,0.038-0.278,0.038-0.423C46.452,40.448,46.45,40.432,46.45,40.415z"/>
	<g>
		<path style="fill:#EF6A00;" d="M18.264,11.597L18.264,11.597c-1.049,0-1.899,0.85-1.899,1.899h-0.081
			c-1.697-1.818-4.041-2.546-6.223-2.546C4.162,10.95,0,15.274,0,21.416c0,6.101,4.162,10.425,10.061,10.425
			c2.182,0,4.485-0.727,6.223-2.546h0.081c0,1.049,0.85,1.899,1.899,1.899h0c2.254,0,4.081-1.827,4.081-4.081V15.678
			C22.345,13.424,20.518,11.597,18.264,11.597z M11.152,27.113c-3.071,0-5.213-2.344-5.213-5.697c0-3.394,2.142-5.738,5.213-5.738
			c3.031,0,5.091,2.344,5.091,5.738C16.244,24.77,14.183,27.113,11.152,27.113z"/>
		<path style="fill:#EF6A00;" d="M45.722,0L45.722,0c-1.685,0-3.051,1.366-3.051,3.051v10.445H42.59
			c-1.414-1.576-3.758-2.546-6.182-2.546c-5.859,0-9.981,4.324-9.981,10.466c0,6.101,4.162,10.425,10.061,10.425
			c2.344,0,4.485-0.768,6.223-2.546h0.081c0,1.049,0.85,1.899,1.899,1.899h1.03c1.685,0,3.051-1.366,3.051-3.051V3.051
			C48.772,1.366,47.406,0,45.722,0z M37.58,27.113c-3.071,0-5.213-2.344-5.213-5.697c0-3.394,2.142-5.738,5.213-5.738
			c3.03,0,5.091,2.344,5.091,5.738C42.671,24.77,40.61,27.113,37.58,27.113z"/>
		<path style="fill:#EF6A00;" d="M63.966,10.95c-6.667,0-11.112,4.162-11.112,10.466c0,6.263,4.445,10.425,11.112,10.425
			s11.112-4.162,11.112-10.425C75.078,15.112,70.633,10.95,63.966,10.95z M63.966,26.831c-3.192,0-5.334-2.142-5.334-5.415
			c0-3.273,2.142-5.455,5.334-5.455s5.334,2.182,5.334,5.455C69.3,24.689,67.158,26.831,63.966,26.831z"/>
		<path style="fill:#EF6A00;" d="M104.132,10.95c-1.789,0-3.601,0.462-5.174,1.403c-0.962,0.575-2.161,0.513-3.107-0.088
			c-1.323-0.84-2.916-1.315-4.528-1.315c-2.182,0-4.404,0.808-6.061,2.546h-0.081c0-1.049-0.85-1.899-1.899-1.899h-1.05
			c-1.674,0-3.031,1.357-3.031,3.031v13.536c0,1.674,1.357,3.031,3.031,3.031h0c1.674,0,3.031-1.357,3.031-3.031v-7.677
			c0-2.667,1.616-4.364,4.081-4.364c2.344,0,3.839,1.818,3.839,4.566v7.475c0,1.674,1.357,3.031,3.031,3.031h0.04
			c1.674,0,3.031-1.357,3.031-3.031v-7.677c0-2.667,1.455-4.364,3.677-4.364c2.546,0,4.162,1.818,4.162,4.566v7.475
			c0,1.674,1.357,3.031,3.031,3.031h0.04c1.674,0,3.031-1.357,3.031-3.031V19.88C113.224,14.628,109.425,10.95,104.132,10.95z"/>
		<path style="fill:#EF6A00;" d="M120.907,11.597L120.907,11.597c-1.674,0-3.03,1.357-3.03,3.03v13.537
			c0,1.674,1.357,3.03,3.03,3.03h0c1.674,0,3.03-1.357,3.03-3.03V14.627C123.938,12.954,122.581,11.597,120.907,11.597z"/>
	</g>
</g>
</svg>
